<svg width="512" height="512" viewBox="0 0 512 512" fill="none" xmlns="http://www.w3.org/2000/svg">
<rect width="512" height="512" fill="white"/>
<path d="M276 298V135H236V298H276Z" fill="#454545"/>
<path fill-rule="evenodd" clip-rule="evenodd" d="M354 29H159V60H236V82.9875C134.934 93.022 56 178.293 56 282C56 392.457 145.543 482 256 482C366.457 482 456 392.457 456 282C456 232.372 437.924 186.966 407.997 152.006L408.127 152.13L449.456 108.777L420.504 81.1765L379.235 124.467C350.203 101.724 314.726 86.8325 276 82.9875V60H354V29ZM426 282C426 375.888 349.888 452 256 452C162.112 452 86 375.888 86 282C86 188.112 162.112 112 256 112C349.888 112 426 188.112 426 282Z" fill="#454545"/>
</svg>
